<svg width="32" height="59" fill="none" xmlns="http://www.w3.org/2000/svg"><rect x=".5" y=".5" width="31" height="58" rx="1.5" fill="#fff" stroke="#000"/><path d="M10.5 34.5V55l2.087-1.5c-.087-18 0-16.5 0-17.5L10.5 34.5ZM26.5 53.5v-12H24c.088 1.48 0 9 0 13.5l2.5-1.5Z" fill="#fff"/><path d="M10.5 34.5V55l2.087-1.5c-.087-18 0-16.5 0-17.5L10.5 34.5ZM26.5 53.5v-12H24c.088 1.48 0 9 0 13.5l2.5-1.5Z" stroke="#000"/><path d="M12 30c-.79-.358-2 1-1.5 2.5l2.602 1.678c.515-.454 1.546-.244 2.059 0C19 36 23.934 38.902 24 40h2.5c0-1.435-2-2.736-5-4.5-3-1.764-8.398-5-9.5-5.5Z" fill="#000" stroke="#000"/><path d="M13.5 36v-1l-4-2.5v1l4 2.5ZM28 41v-1h-5v1h5Z" fill="#fff"/><path d="M8.5 7v15.5c0 .618 0 2.243 2.182 2.243C15.19 24.743 24.5 18 26.5 16.5v4S12.663 26.753 12 27c-.497.185-3.071 1.398-3.5 3.061-.5 1.939-2.093 3.717-2.5 0-.5-4.561-.5-4.818-.5-7.061V4.5l3 2.5Z" fill="#000" stroke="#000"/><path d="M7 27.072C6 26.572 5.5 26 5.5 26v27l3 2V28.072H8c-1 0 0-.5-1-1Z" fill="#000" stroke="#000"/></svg>